<svg width="143" height="24" viewBox="0 0 143 24" fill="none" xmlns="http://www.w3.org/2000/svg">
<path fill-rule="evenodd" clip-rule="evenodd" d="M32 12C32 12 27 22 17 22C22.5229 22 27 17.5228 27 12C27 6.47715 22.5229 2 17 2C27 2 32 12 32 12ZM17 2C11.4772 2 7 6.47715 7 12C7 17.5228 11.4772 22 17 22C7 22 2 12 2 12C2 12 7 2 17 2ZM17 17C19.7614 17 22 14.7614 22 12C22 11.4879 21.923 10.9938 21.78 10.5286C21.4659 10.6708 21.1172 10.75 20.75 10.75C19.3693 10.75 18.25 9.63071 18.25 8.25C18.25 7.8828 18.3292 7.53409 18.4714 7.22C18.0062 7.07698 17.5121 7 17 7C14.2386 7 12 9.23858 12 12C12 14.7614 14.2386 17 17 17ZM95.8822 17.6263C94.7364 18.7811 93.5995 19.6092 92.4716 20.1105C91.3526 20.6118 90.265 20.8624 89.2086 20.8624C88.2777 20.8624 87.3735 20.6744 86.4962 20.2985C85.6279 19.9225 84.8536 19.3809 84.1732 18.6737C83.5019 17.9665 82.9603 17.1026 82.5485 16.0821C82.1457 15.0527 81.9442 13.8889 81.9442 12.5909C81.9442 11.1586 82.1636 9.86063 82.6022 8.69689C83.0498 7.53315 83.6585 6.5395 84.4284 5.71593C85.2072 4.88341 86.1247 4.24336 87.1811 3.79577C88.2374 3.34817 89.3832 3.12885 90.6186 3.13781C91.102 3.13781 91.5898 3.17361 92.0822 3.24523C92.5745 3.31684 93.0445 3.41531 93.4921 3.54064C93.9397 3.65701 94.347 3.79577 94.714 3.9569C95.09 4.11803 95.3944 4.29259 95.6271 4.48058C95.6629 4.50744 95.6584 4.59695 95.6137 4.74913C95.5779 4.90132 95.5152 5.0893 95.4257 5.3131C95.3362 5.52794 95.2332 5.76517 95.1169 6.02477C95.0005 6.27542 94.8796 6.51712 94.7543 6.74987C94.6379 6.98261 94.526 7.18851 94.4186 7.36754C94.3112 7.54658 94.2217 7.6719 94.1501 7.74352L93.143 7.52868C92.6954 6.62454 92.1807 5.98001 91.5988 5.59508C91.0259 5.2012 90.4127 5.00874 89.7592 5.01769C89.3026 5.01769 88.8372 5.12511 88.3627 5.33995C87.8883 5.5548 87.4586 5.93077 87.0736 6.46788C86.6887 7.00499 86.3754 7.73009 86.1337 8.64318C85.892 9.54731 85.7711 10.6976 85.7711 12.0941C85.7711 13.222 85.9144 14.1888 86.2008 14.9945C86.4873 15.7912 86.8588 16.4447 87.3153 16.9549C87.7719 17.4652 88.2866 17.8412 88.8595 18.0829C89.4324 18.3246 90.0054 18.4454 90.5783 18.4454C90.82 18.4454 91.1064 18.423 91.4377 18.3783C91.7689 18.3246 92.1269 18.2306 92.5119 18.0963C92.9058 17.962 93.322 17.7785 93.7607 17.5458C94.2082 17.3041 94.6603 16.9952 95.1169 16.6193C95.1616 16.6551 95.2198 16.7222 95.2914 16.8207C95.372 16.9191 95.4481 17.0266 95.5197 17.1429C95.6003 17.2504 95.6719 17.3533 95.7345 17.4518C95.8061 17.5413 95.8554 17.5995 95.8822 17.6263ZM55.1951 20.4596V19.3451C55.598 19.2645 55.9337 19.1795 56.2022 19.09C56.4708 19.0004 56.6811 18.9154 56.8333 18.8348C56.9944 18.7453 57.1063 18.6647 57.169 18.5931C57.2317 18.5126 57.263 18.4409 57.263 18.3783V13.3832C56.9407 12.676 56.5827 11.9464 56.1888 11.1944C55.7949 10.4425 55.3965 9.7174 54.9937 9.01915C54.5909 8.32091 54.1925 7.6719 53.7986 7.07213C53.4137 6.47236 53.0646 5.96211 52.7513 5.54137C52.6707 5.4429 52.5857 5.35786 52.4962 5.28624C52.4156 5.20568 52.3037 5.14301 52.1605 5.09826C52.0172 5.04454 51.8292 5.00426 51.5965 4.97741C51.3637 4.95055 51.0594 4.93712 50.6834 4.93712L50.6297 3.82262C50.8893 3.78681 51.1937 3.74653 51.5428 3.70177C51.9009 3.64806 52.2589 3.6033 52.617 3.56749C52.9751 3.52273 53.3108 3.48693 53.6241 3.46007C53.9374 3.42426 54.188 3.40636 54.376 3.40636C54.6356 3.40636 54.9042 3.46455 55.1817 3.58092C55.4592 3.69729 55.674 3.85843 55.8262 4.06432C56.1574 4.51191 56.5021 5.02216 56.8602 5.59508C57.2182 6.168 57.5763 6.77225 57.9344 7.40783C58.3014 8.04341 58.6595 8.70136 59.0086 9.3817C59.3667 10.0531 59.7024 10.711 60.0157 11.3556L62.9966 5.54137C63.1309 5.30862 63.0862 5.12511 62.8624 4.99083C62.6475 4.85656 62.1955 4.74466 61.5062 4.65514V3.54064H67.2264V4.65514C66.922 4.70885 66.6579 4.76704 66.4341 4.8297C66.2193 4.88341 66.0358 4.94607 65.8836 5.01769C65.7314 5.08035 65.6061 5.15644 65.5076 5.24596C65.4092 5.32653 65.3286 5.425 65.2659 5.54137L61.0228 13.5443V18.3783C61.0228 18.432 61.0541 18.4991 61.1168 18.5797C61.1794 18.6513 61.2868 18.7319 61.439 18.8214C61.6002 18.9109 61.815 19.0004 62.0836 19.09C62.3521 19.1795 62.6968 19.2645 63.1175 19.3451V20.4596H55.1951ZM50.6157 16.109C50.5799 16.4939 50.5396 16.9147 50.4949 17.3712C50.4501 17.8188 50.4009 18.253 50.3472 18.6737C50.2935 19.0855 50.2397 19.4525 50.186 19.7748C50.1413 20.097 50.101 20.3253 50.0652 20.4596H37V19.3451C37.6087 19.2198 38.0608 19.0855 38.3562 18.9422C38.6606 18.7901 38.8127 18.6513 38.8127 18.526V5.48766C38.8127 5.38024 38.6695 5.24596 38.3831 5.08483C38.1056 4.92369 37.6445 4.78047 37 4.65514V3.54064H49.1655L49.7429 4.01061C49.725 4.24336 49.6982 4.54772 49.6624 4.92369C49.6266 5.29967 49.5818 5.6846 49.5281 6.07848C49.4744 6.47236 49.4162 6.84386 49.3535 7.19298C49.2998 7.5421 49.2461 7.80171 49.1924 7.97179H48.051C48.0063 7.13927 47.8944 6.48579 47.7153 6.01134C47.5363 5.52794 47.2812 5.28624 46.95 5.28624H42.5725V10.5902H47.8765L48.3599 11.1005C48.2882 11.2258 48.1987 11.3735 48.0913 11.5436C47.9928 11.7137 47.8854 11.8882 47.769 12.0672C47.6616 12.2373 47.5497 12.394 47.4334 12.5372C47.3259 12.6804 47.223 12.7879 47.1245 12.8595C46.9902 12.7252 46.8425 12.6133 46.6814 12.5238C46.5292 12.4343 46.3502 12.3582 46.1443 12.2955C45.9474 12.2329 45.7101 12.1881 45.4326 12.1612C45.1641 12.1344 44.8418 12.121 44.4658 12.121H42.5725V17.8546C42.5725 17.9889 42.6038 18.1097 42.6665 18.2172C42.7292 18.3156 42.859 18.4051 43.0559 18.4857C43.2528 18.5573 43.5304 18.6155 43.8884 18.6603C44.2465 18.6961 44.721 18.714 45.3118 18.714H46.5068C46.9186 18.714 47.2677 18.6603 47.5542 18.5528C47.8496 18.4365 48.1092 18.2574 48.333 18.0157C48.5568 17.774 48.7582 17.4652 48.9373 17.0892C49.1252 16.7132 49.3132 16.2612 49.5012 15.733L50.6157 16.109ZM81.138 17.3712C81.1828 16.9147 81.2231 16.4939 81.2589 16.109L80.1444 15.733C79.9564 16.2612 79.7684 16.7132 79.5804 17.0892C79.4014 17.4652 79.2 17.774 78.9762 18.0157C78.7524 18.2574 78.4928 18.4365 78.1974 18.5528C77.9109 18.6603 77.5618 18.714 77.15 18.714H75.9549C75.3641 18.714 74.8897 18.6961 74.5316 18.6603C74.1735 18.6155 73.896 18.5573 73.6991 18.4857C73.5021 18.4051 73.3723 18.3156 73.3097 18.2172C73.247 18.1097 73.2157 17.9889 73.2157 17.8546V12.121H75.109C75.485 12.121 75.8072 12.1344 76.0758 12.1612C76.3533 12.1881 76.5905 12.2329 76.7875 12.2955C76.9934 12.3582 77.1724 12.4343 77.3246 12.5238C77.4857 12.6133 77.6334 12.7252 77.7677 12.8595C77.8662 12.7879 77.9691 12.6804 78.0765 12.5372C78.1929 12.394 78.3048 12.2373 78.4122 12.0672C78.5286 11.8882 78.636 11.7137 78.7345 11.5436C78.8419 11.3735 78.9314 11.2258 79.003 11.1005L78.5196 10.5902H73.2157V5.28624H77.5931C77.9243 5.28624 78.1795 5.52794 78.3585 6.01134C78.5375 6.48579 78.6494 7.13927 78.6942 7.97179H79.8356C79.8893 7.80171 79.943 7.5421 79.9967 7.19298C80.0593 6.84386 80.1175 6.47236 80.1712 6.07848C80.225 5.6846 80.2697 5.29967 80.3055 4.92369C80.3413 4.54772 80.3682 4.24336 80.3861 4.01061L79.8087 3.54064H67.6432V4.65514C68.2877 4.78047 68.7487 4.92369 69.0262 5.08483C69.3127 5.24596 69.4559 5.38024 69.4559 5.48766V18.526C69.4559 18.6513 69.3037 18.7901 68.9994 18.9422C68.704 19.0855 68.2519 19.2198 67.6432 19.3451V20.4596H80.7084C80.7442 20.3253 80.7844 20.097 80.8292 19.7748C80.8829 19.4525 80.9366 19.0855 80.9903 18.6737C81.0441 18.253 81.0933 17.8188 81.138 17.3712ZM110.304 17.3712C110.349 16.9147 110.389 16.4939 110.425 16.109L109.311 15.733C109.123 16.2612 108.935 16.7132 108.747 17.0892C108.568 17.4652 108.366 17.774 108.142 18.0157C107.919 18.2574 107.659 18.4365 107.363 18.5528C107.077 18.6603 106.728 18.714 106.316 18.714H105.121C104.53 18.714 104.056 18.6961 103.698 18.6603C103.34 18.6155 103.062 18.5573 102.865 18.4857C102.668 18.4051 102.538 18.3156 102.476 18.2172C102.413 18.1097 102.382 17.9889 102.382 17.8546V12.121H104.275C104.651 12.121 104.973 12.1344 105.242 12.1612C105.519 12.1881 105.757 12.2329 105.954 12.2955C106.159 12.3582 106.339 12.4343 106.491 12.5238C106.652 12.6133 106.8 12.7252 106.934 12.8595C107.032 12.7879 107.135 12.6804 107.243 12.5372C107.359 12.394 107.471 12.2373 107.578 12.0672C107.695 11.8882 107.802 11.7137 107.901 11.5436C108.008 11.3735 108.098 11.2258 108.169 11.1005L107.686 10.5902H102.382V5.28624H106.759C107.09 5.28624 107.346 5.52794 107.525 6.01134C107.704 6.48579 107.816 7.13927 107.86 7.97179H109.002C109.055 7.80171 109.109 7.5421 109.163 7.19298C109.225 6.84386 109.284 6.47236 109.337 6.07848C109.391 5.6846 109.436 5.29967 109.472 4.92369C109.507 4.54772 109.534 4.24336 109.552 4.01061L108.975 3.54064H96.8093V4.65514C97.4538 4.78047 97.9148 4.92369 98.1924 5.08483C98.4788 5.24596 98.622 5.38024 98.622 5.48766V18.526C98.622 18.6513 98.4698 18.7901 98.1655 18.9422C97.8701 19.0855 97.418 19.2198 96.8093 19.3451V20.4596H109.874C109.91 20.3253 109.951 20.097 109.995 19.7748C110.049 19.4525 110.103 19.0855 110.156 18.6737C110.21 18.253 110.259 17.8188 110.304 17.3712ZM110.976 20.4596V19.3451C111.585 19.2198 112.037 19.0855 112.332 18.9422C112.637 18.7901 112.789 18.6513 112.789 18.526V5.05797L110.976 5.3131L110.788 3.94347C111.764 3.73758 112.847 3.55407 114.038 3.39293C115.228 3.22285 116.486 3.13781 117.811 3.13781C119.082 3.13781 120.161 3.24075 121.047 3.44664C121.933 3.65254 122.649 3.93899 123.195 4.30602C123.75 4.67304 124.149 5.10721 124.39 5.60851C124.641 6.10086 124.766 6.63349 124.766 7.20641C124.766 7.81513 124.672 8.3791 124.484 8.8983C124.305 9.40856 124.05 9.87405 123.719 10.2948C123.397 10.7066 123.003 11.0736 122.537 11.3959C122.081 11.7092 121.575 11.9643 121.02 12.1612L125.317 17.7875C125.46 17.9755 125.59 18.1276 125.706 18.244C125.832 18.3604 125.966 18.4499 126.109 18.5126C126.261 18.5663 126.436 18.5976 126.633 18.6066C126.839 18.6155 127.094 18.6066 127.398 18.5797L127.543 19.3318C128.12 19.2103 128.551 19.0804 128.836 18.9422C129.14 18.7901 129.292 18.6513 129.292 18.526V5.48766C129.292 5.38024 129.149 5.24596 128.862 5.08483C128.585 4.92369 128.124 4.78047 127.479 4.65514V3.54064H139.779L140.33 4.01061C140.321 4.24336 140.298 4.54772 140.263 4.92369C140.227 5.29967 140.182 5.6846 140.128 6.07848C140.083 6.47236 140.03 6.84386 139.967 7.19298C139.913 7.5421 139.86 7.80171 139.806 7.97179H138.638C138.611 7.13927 138.503 6.48579 138.315 6.01134C138.136 5.52794 137.877 5.28624 137.537 5.28624H133.052V10.5902H137.94L138.463 11.1005C138.383 11.2616 138.289 11.4317 138.181 11.6107C138.074 11.7808 137.962 11.9464 137.846 12.1075C137.729 12.2687 137.613 12.4164 137.496 12.5506C137.389 12.6849 137.291 12.7879 137.201 12.8595C137.067 12.7252 136.923 12.6133 136.771 12.5238C136.619 12.4343 136.44 12.3582 136.234 12.2955C136.037 12.2329 135.8 12.1881 135.523 12.1612C135.254 12.1344 134.932 12.121 134.556 12.121H133.052V18.526C133.052 18.5797 133.083 18.6379 133.146 18.7006C133.217 18.7632 133.334 18.8304 133.495 18.902C133.665 18.9646 133.893 19.0362 134.18 19.1168C134.466 19.1884 134.829 19.2645 135.267 19.3451V20.4596H127.479V19.7382C127.214 19.8244 126.909 19.9172 126.566 20.0165C126.172 20.1239 125.778 20.2268 125.384 20.3253C124.999 20.4148 124.637 20.4909 124.296 20.5536C123.956 20.6162 123.701 20.6476 123.531 20.6476C123.271 20.6476 123.016 20.576 122.766 20.4327C122.524 20.2895 122.34 20.1149 122.215 19.909L118.428 12.6581C118.357 12.667 118.281 12.6715 118.2 12.6715H117.972C117.739 12.6715 117.506 12.6625 117.274 12.6446C117.041 12.6178 116.799 12.5775 116.549 12.5238V18.526C116.549 18.6334 116.687 18.7677 116.965 18.9288C117.242 19.081 117.708 19.2198 118.361 19.3451V20.4596H110.976ZM117.18 4.66857C117.081 4.66857 116.978 4.67304 116.871 4.682H116.549V10.9125C116.79 10.9572 117.001 10.9841 117.18 10.993C117.359 11.002 117.547 11.0065 117.744 11.0065C118.317 11.0065 118.804 10.9304 119.207 10.7782C119.61 10.6171 119.937 10.3933 120.188 10.1068C120.447 9.81139 120.635 9.45779 120.751 9.04601C120.877 8.62527 120.939 8.15083 120.939 7.62267C120.939 7.23774 120.886 6.86624 120.778 6.50817C120.68 6.15009 120.487 5.83678 120.201 5.56823C119.923 5.29072 119.539 5.0714 119.046 4.91027C118.563 4.74913 117.941 4.66857 117.18 4.66857Z" fill="#31577C"/>
</svg>
