<svg width="24" height="24" viewBox="0 0 24 24" xmlns="http://www.w3.org/2000/svg">
<path d="M9.49902 19C13.9173 19 17.499 15.4183 17.499 11C17.499 6.58172 13.9173 3 9.49902 3C5.08075 3 1.49902 6.58172 1.49902 11C1.49902 12.0442 1.69909 13.0417 2.06298 13.9562C2.34583 14.6671 2.3505 15.485 1.90934 16.1101C1.37143 16.8722 0.896138 17.4933 0.659291 17.7974C0.556006 17.9301 0.5 18.0916 0.5 18.2597C0.5 18.6686 0.831449 19 1.24031 19H1.5C2.30323 19 3.59065 18.6774 4.84378 18.2913C5.37338 18.1282 5.94244 18.1894 6.45485 18.4004C7.39323 18.7869 8.42124 19 9.49902 19Z" fill="currentColor"/>
<path d="M12.1416 20.6474C16.3826 19.4887 19.4998 15.6084 19.4998 11C19.4998 9.11126 18.9762 7.34482 18.0662 5.83793C20.6935 7.14943 22.4979 9.86399 22.4979 13C22.4979 14.0436 22.2981 15.0406 21.9346 15.9546C21.6519 16.6654 21.6474 17.4832 22.0885 18.1081C22.6272 18.8711 23.1033 19.493 23.3405 19.7974C23.4438 19.93 23.4998 20.0916 23.4998 20.2598C23.4998 20.6686 23.1684 21 22.7596 21H22.4998C21.6956 21 20.4075 20.6772 19.1542 20.291C18.6244 20.1278 18.0552 20.1891 17.5427 20.4002C16.6042 20.7868 15.5759 21 14.4979 21C13.6778 21 12.8865 20.8766 12.1416 20.6474Z" fill="currentColor"/>
</svg>
