<svg width="24" height="24" viewBox="0 0 24 24" xmlns="http://www.w3.org/2000/svg">
<path fill-rule="evenodd" clip-rule="evenodd" d="M20.8839 20.8838C21.372 20.3957 21.372 19.6042 20.8839 19.1161L13.7678 11.9999L20.8839 4.88383C21.372 4.39567 21.372 3.60422 20.8839 3.11606C20.3957 2.62791 19.6043 2.62791 19.1161 3.11606L12 10.2322L4.88388 3.11606C4.39573 2.62791 3.60427 2.62791 3.11612 3.11606C2.62796 3.60422 2.62796 4.39568 3.11612 4.88383L10.2322 11.9999L3.11613 19.1161C2.62798 19.6042 2.62798 20.3957 3.11613 20.8838C3.60429 21.372 4.39574 21.372 4.8839 20.8838L12 13.7677L19.1161 20.8838C19.6043 21.372 20.3957 21.372 20.8839 20.8838Z" fill="currentColor"/>
</svg>
