<svg width="24" height="24" viewBox="0 0 24 24" xmlns="http://www.w3.org/2000/svg">
<path fill-rule="evenodd" clip-rule="evenodd" d="M9.91414 5.58037C11.2698 5.13988 12.7302 5.13988 14.0859 5.58037C15.4416 6.02086 16.623 6.87923 17.4609 8.03245C18.2969 9.18311 18.748 10.5684 18.75 11.9905C18.75 11.9937 18.75 11.9968 18.75 12V13C18.75 13.4142 18.4142 13.75 18 13.75C17.5857 13.75 17.25 13.4142 17.25 13V9C17.25 8.30964 16.6903 7.75 16 7.75C15.3096 7.75 14.75 8.30964 14.75 9V9.09522C14.0331 8.41636 13.0652 8 12 8C9.79086 8 8 9.79086 8 12C7.99999 14.2091 9.79085 16 12 16C13.2609 16 14.3855 15.4166 15.1187 14.505C15.6616 15.5422 16.7481 16.25 18 16.25C19.7949 16.25 21.25 14.7949 21.25 13V12.0104C21.25 12.0069 21.25 12.0035 21.25 12C21.25 10.0466 20.6316 8.14333 19.4834 6.56299C18.3352 4.98265 16.7162 3.80636 14.8584 3.20273C13.0006 2.59909 10.9994 2.59909 9.14159 3.20273C7.28379 3.80636 5.66478 4.98265 4.51659 6.56299C3.36841 8.14333 2.75 10.0466 2.75 12C2.75 13.9534 3.36841 15.8567 4.51659 17.437C5.66478 19.0174 7.28379 20.1936 9.14159 20.7973C10.9994 21.4009 13.0006 21.4009 14.8584 20.7973C15.515 20.5839 15.8743 19.8787 15.661 19.2222C15.4476 18.5656 14.7424 18.2063 14.0859 18.4196C12.7302 18.8601 11.2698 18.8601 9.91413 18.4196C8.55844 17.9791 7.377 17.1208 6.53914 15.9676C5.70127 14.8143 5.25 13.4255 5.25 12C5.25 10.5745 5.70127 9.18567 6.53914 8.03245C7.377 6.87923 8.55844 6.02086 9.91414 5.58037ZM12 10.5C11.1716 10.5 10.5 11.1716 10.5 12C10.5 12.8284 11.1716 13.5 12 13.5C12.8284 13.5 13.5 12.8284 13.5 12C13.5 11.1716 12.8284 10.5 12 10.5Z" fill="currentColor"/>
</svg>
