<svg width="32" height="32" viewBox="0 0 32 32" xmlns="http://www.w3.org/2000/svg">
<path fill-rule="evenodd" clip-rule="evenodd" d="M28 16C28 22.6274 22.6274 28 16 28C9.37258 28 4 22.6274 4 16C4 9.37258 9.37258 4 16 4C22.6274 4 28 9.37258 28 16ZM25.3333 16C25.3333 17.3333 24 22.6667 16 22.6667C8 22.6667 6.66667 17.3333 6.66667 16C6.66667 14.6667 8 9.33333 16 9.33333C24 9.33333 25.3333 14.6667 25.3333 16ZM18.6667 16C19.1462 16 19.5962 15.8734 19.9851 15.6518C19.9949 15.7666 20 15.8827 20 16C20 18.2091 18.2091 20 16 20C13.7909 20 12 18.2091 12 16C12 13.7909 13.7909 12 16 12C16.1173 12 16.2334 12.005 16.3482 12.0149C16.1266 12.4038 16 12.8538 16 13.3333C16 14.8061 17.1939 16 18.6667 16Z" fill="currentColor"/>
</svg>
