<svg width="24" height="24" viewBox="0 0 24 24" xmlns="http://www.w3.org/2000/svg">
<path fill-rule="evenodd" clip-rule="evenodd" d="M12 1.2002C17.9653 1.2002 22.8 6.03488 22.8 12.0002C22.8 17.3918 18.8512 21.8594 13.6875 22.6694V15.1221H16.2039L16.6828 12.0002H13.6875V9.9752C13.6875 9.86841 13.694 9.76195 13.708 9.65741C13.8063 8.92562 14.2728 8.2877 15.4467 8.2877H16.8093V5.62988C16.8093 5.62988 15.5732 5.41895 14.392 5.41895C11.924 5.41895 10.3125 6.91449 10.3125 9.62082V12.0002H7.57026V15.1221H10.3125V22.6694C5.1487 21.8594 1.19995 17.3918 1.19995 12.0002C1.19995 6.03488 6.03464 1.2002 12 1.2002Z" fill="currentColor"/>
</svg>
