<svg width="12" height="12" viewBox="0 0 12 12" xmlns="http://www.w3.org/2000/svg">
<path fill-rule="evenodd" clip-rule="evenodd" d="M7.95493 3.68378C7.42368 3.17803 6.75218 2.91878 5.99993 2.91878C4.66968 2.91878 3.54342 3.81553 3.13967 5.02678L3.13965 5.02677C3.03765 5.33277 2.97816 5.66001 2.97816 6.00001C2.97816 6.34001 3.03341 6.66726 3.13966 6.97326H3.13967C3.54342 8.18451 4.66968 9.08126 5.99993 9.08126C6.68843 9.08126 7.27068 8.89426 7.72968 8.58826L7.72971 8.58828C8.26518 8.22703 8.62641 7.69579 8.74966 7.06681H5.9999V5.15006H10.8024C10.8534 5.46031 10.8832 5.77906 10.8832 6.11481C10.8832 7.66606 10.3307 8.97507 9.37016 9.86332H9.37012C8.52863 10.641 7.3769 11.1 5.99993 11.1C4.00667 11.1 2.28542 9.95251 1.44817 8.28651L1.44815 8.28651C1.09965 7.59801 0.899902 6.82451 0.899902 6.00001C0.899902 5.17551 1.09965 4.40201 1.44815 3.71351H1.44818C2.28544 2.04752 4.00668 0.900024 5.99993 0.900024C7.37693 0.900024 8.52868 1.40578 9.40843 2.23028L7.95493 3.68378Z" fill="currentColor"/>
</svg>
