<svg width="24" height="24" viewBox="0 0 24 24" xmlns="http://www.w3.org/2000/svg">
<path d="M11.9993 3.14727C14.8831 3.14727 15.2243 3.15841 16.3633 3.21028C17.4161 3.2583 17.988 3.43406 18.3687 3.58195C18.8382 3.75482 19.2631 4.0308 19.6118 4.38959C19.9706 4.73838 20.2466 5.1632 20.4195 5.63277C20.5674 6.01344 20.7431 6.5853 20.7911 7.63814C20.843 8.77672 20.8542 9.11838 20.8542 12.0021C20.8542 14.8859 20.843 15.2271 20.7911 16.3661C20.7431 17.4189 20.5674 17.9908 20.4195 18.3715C20.2398 18.8372 19.9646 19.2602 19.6116 19.6132C19.2587 19.9662 18.8357 20.2413 18.37 20.421C17.9893 20.5689 17.4174 20.7447 16.3646 20.7927C15.226 20.8445 14.8843 20.8557 12.0006 20.8557C9.11685 20.8557 8.77519 20.8445 7.63661 20.7927C6.58377 20.7447 6.01191 20.5689 5.63124 20.421C5.16167 20.2481 4.73685 19.9722 4.38806 19.6134C4.02927 19.2646 3.75329 18.8398 3.58042 18.3702C3.43253 17.9895 3.25677 17.4177 3.20875 16.3648C3.15688 15.2262 3.14574 14.8846 3.14574 12.0008C3.14574 9.11709 3.15688 8.77586 3.20875 7.63685C3.25677 6.58401 3.43253 6.01215 3.58042 5.63148C3.75329 5.16191 4.02927 4.73709 4.38806 4.3883C4.73685 4.02952 5.16167 3.75353 5.63124 3.58067C6.01191 3.43277 6.58377 3.25701 7.63661 3.209C8.77519 3.15713 9.11685 3.14598 12.0006 3.14598L11.9993 3.14727ZM12.0006 1.2002C9.06755 1.2002 8.69974 1.21263 7.54787 1.26535C6.39601 1.31808 5.61195 1.50156 4.92605 1.7682C4.20515 2.0393 3.55208 2.46444 3.01242 3.01395C2.46291 3.55361 2.03777 4.20668 1.76667 4.92758C1.50003 5.61348 1.31741 6.39882 1.26511 7.54812C1.21281 8.69741 1.19995 9.06779 1.19995 12.0008C1.19995 14.9339 1.21238 15.3017 1.26511 16.4536C1.31784 17.6054 1.50003 18.3882 1.76667 19.0741C2.03788 19.7947 2.46301 20.4475 3.01242 20.9869C3.55204 21.5365 4.20511 21.9618 4.92605 22.233C5.61195 22.5001 6.39815 22.6827 7.54744 22.735C8.69674 22.7873 9.06712 22.8002 12.0002 22.8002C14.9332 22.8002 15.301 22.7878 16.4529 22.735C17.6048 22.6823 18.3867 22.5001 19.0726 22.233C19.7901 21.9556 20.4418 21.5313 20.9857 20.9873C21.5297 20.4433 21.9541 19.7916 22.2315 19.0741C22.4986 18.3882 22.6812 17.602 22.7335 16.4527C22.7858 15.3034 22.7987 14.933 22.7987 12C22.7987 9.06694 22.7862 8.69913 22.7335 7.54726C22.6808 6.39539 22.4986 5.61348 22.2315 4.92758C21.9603 4.20699 21.5352 3.55422 20.9858 3.01481C20.4463 2.46504 19.7934 2.0396 19.0726 1.7682C18.3867 1.50156 17.6013 1.31894 16.452 1.26664C15.3027 1.21434 14.9323 1.20148 11.9993 1.20148L12.0006 1.2002Z" fill="currentColor"/>
<path d="M11.9995 6.45557C10.9028 6.45557 9.8306 6.7808 8.91866 7.39014C8.00672 7.99948 7.29595 8.86556 6.87622 9.87885C6.4565 10.8921 6.34669 12.0071 6.56066 13.0829C6.77463 14.1586 7.30278 15.1467 8.07832 15.9222C8.85387 16.6978 9.84197 17.2259 10.9177 17.4399C11.9934 17.6538 13.1084 17.544 14.1217 17.1243C15.135 16.7046 16.0011 15.9938 16.6104 15.0819C17.2197 14.1699 17.545 13.0978 17.545 12.001C17.545 10.5303 16.9607 9.11976 15.9207 8.07979C14.8808 7.03982 13.4703 6.45557 11.9995 6.45557V6.45557ZM11.9995 15.6019C11.2873 15.6019 10.5911 15.3907 9.99897 14.9951C9.4068 14.5994 8.94526 14.037 8.67271 13.379C8.40016 12.721 8.32885 11.997 8.4678 11.2985C8.60674 10.6 8.94969 9.95836 9.45329 9.45476C9.95689 8.95116 10.5985 8.6082 11.297 8.46926C11.9955 8.33032 12.7196 8.40163 13.3776 8.67417C14.0355 8.94672 14.5979 9.40826 14.9936 10.0004C15.3893 10.5926 15.6005 11.2888 15.6005 12.001C15.6005 12.956 15.2211 13.8719 14.5458 14.5472C13.8705 15.2225 12.9546 15.6019 11.9995 15.6019Z" fill="currentColor"/>
<path d="M17.7643 7.53176C18.48 7.53176 19.0602 6.95156 19.0602 6.23585C19.0602 5.52014 18.48 4.93994 17.7643 4.93994C17.0486 4.93994 16.4684 5.52014 16.4684 6.23585C16.4684 6.95156 17.0486 7.53176 17.7643 7.53176Z" fill="currentColor"/>
</svg>
