<svg width="24" height="24" viewBox="0 0 24 24" xmlns="http://www.w3.org/2000/svg">
<path fill-rule="evenodd" clip-rule="evenodd" d="M12 21C16.9706 21 21 16.9706 21 12C21 7.02944 16.9706 3 12 3C7.02944 3 3 7.02944 3 12C3 16.9706 7.02944 21 12 21ZM13 7.50005C13 6.94777 12.5523 6.50005 12 6.50005C11.4477 6.50005 11 6.94777 11 7.50005V7.55005C11 8.10233 11.4477 8.55005 12 8.55005C12.5523 8.55005 13 8.10233 13 7.55005V7.50005ZM13 11.5C13 10.9478 12.5523 10.5001 12 10.5001C11.4477 10.5001 11 10.9478 11 11.5V16.5C11 17.0523 11.4477 17.5 12 17.5C12.5523 17.5 13 17.0523 13 16.5V11.5Z" fill="currentColor"/>
</svg>
