<svg width="24" height="24" viewBox="0 0 24 24" xmlns="http://www.w3.org/2000/svg">
<path d="M6.09484 19.8716C4.85999 20.0043 3.76405 19.3209 2.88585 18.4427L2.80704 18.3639C2.02599 17.5829 2.02599 16.3165 2.80704 15.5355L5.6358 12.7067C6.41699 11.9255 7.68358 11.9257 8.46457 12.7071L9.171 13.4138C9.5615 13.8045 10.1948 13.8046 10.5854 13.414L13.4138 10.5856C13.8043 10.1951 13.8043 9.56208 13.414 9.17153L12.7065 8.46374C11.9258 7.68264 11.926 6.41657 12.7069 5.63566L15.535 2.80757C16.316 2.02652 17.5823 2.02652 18.3634 2.80757L18.4435 2.88767C19.3209 3.76504 20.0038 4.85977 19.8717 6.09351C19.6758 7.92271 18.6673 10.9889 14.8286 14.8276C10.9909 18.6654 7.92463 19.6749 6.09484 19.8716Z" fill="currentColor"/>
</svg>
