<svg width="20" height="20" viewBox="0 0 20 20" xmlns="http://www.w3.org/2000/svg">
<path fill-rule="evenodd" clip-rule="evenodd" d="M7.91872 2.5C10.0238 2.5 10.0238 6.66667 7.91872 6.66667C5.81362 6.66667 5.81362 2.5 7.91872 2.5ZM15.7947 13.7878C15.341 11.1395 13.6934 8.33338 10.0051 8.33338C6.31516 8.33338 4.66686 11.1419 4.21356 13.7912C3.7298 16.6184 6.22722 16.6981 8.77575 15.3819C9.22834 15.1481 9.65373 15 10.0051 15C10.3556 15 10.7799 15.1475 11.2313 15.3804C13.7817 16.6962 16.2793 16.6163 15.7947 13.7878ZM12.0821 2.5C14.1872 2.5 14.1872 6.66667 12.0821 6.66667C9.97703 6.66667 9.97703 2.5 12.0821 2.5ZM4.16867 5C6.27377 5 6.27377 9.16667 4.16867 9.16667C2.06357 9.16667 2.06357 5 4.16867 5ZM15.8353 5C17.9404 5 17.9404 9.16667 15.8353 9.16667C13.7302 9.16667 13.7302 5 15.8353 5Z" fill="currentColor"/>
</svg>
