<svg width="24" height="24" viewBox="0 0 24 24" xmlns="http://www.w3.org/2000/svg">
<path fill-rule="evenodd" clip-rule="evenodd" d="M12 21C16.9706 21 21 16.9706 21 12C21 7.02944 16.9706 3 12 3C7.02944 3 3 7.02944 3 12C3 16.9706 7.02944 21 12 21ZM10.0018 9.45498C10.0018 8.6514 10.6532 7.99998 11.4568 7.99998H12.3962C13.2829 7.99998 14.0018 8.71881 14.0018 9.60553C14.0018 10.1423 13.7335 10.6437 13.2868 10.9414L11.4471 12.1679C10.9876 12.4743 10.8634 13.0951 11.1697 13.5547C11.4761 14.0142 12.097 14.1384 12.5565 13.832L14.3962 12.6055C15.3993 11.9368 16.0018 10.8111 16.0018 9.60553C16.0018 7.61424 14.3875 5.99998 12.3962 5.99998H11.4568C9.54864 5.99998 8.00178 7.54683 8.00178 9.45498V9.49998C8.00178 10.0523 8.44949 10.5 9.00178 10.5C9.55406 10.5 10.0018 10.0523 10.0018 9.49998V9.45498ZM13.0018 16.95C13.0018 16.3977 12.5541 15.95 12.0018 15.95C11.4495 15.95 11.0018 16.3977 11.0018 16.95V17C11.0018 17.5523 11.4495 18 12.0018 18C12.5541 18 13.0018 17.5523 13.0018 17V16.95Z" fill="currentColor"/>
</svg>
