<svg width="24" height="24" viewBox="0 0 24 24" xmlns="http://www.w3.org/2000/svg">
<path fill-rule="evenodd" clip-rule="evenodd" d="M5.25 10C5.25 7.37665 7.37665 5.25 10 5.25C12.6234 5.25 14.75 7.37665 14.75 10C14.75 12.6234 12.6234 14.75 10 14.75C7.37665 14.75 5.25 12.6234 5.25 10ZM10 2.75C5.99594 2.75 2.75 5.99594 2.75 10C2.75 14.0041 5.99594 17.25 10 17.25C11.5506 17.25 12.9876 16.7632 14.1663 15.9341L19.1161 20.8839C19.6043 21.372 20.3957 21.372 20.8839 20.8839C21.372 20.3957 21.372 19.6043 20.8839 19.1161L15.9341 14.1663C16.7632 12.9876 17.25 11.5506 17.25 10C17.25 5.99594 14.0041 2.75 10 2.75Z" fill="currentColor"/>
</svg>
