<svg width="24" height="24" viewBox="0 0 24 24" xmlns="http://www.w3.org/2000/svg">
<path d="M11.0523 2.71757C11.3636 1.82201 12.6302 1.82201 12.9415 2.71757L14.5898 7.45961C14.7271 7.85468 15.0958 8.12255 15.514 8.13108L20.5333 8.23336C21.4812 8.25268 21.8726 9.45722 21.1171 10.03L17.1165 13.0631C16.7832 13.3157 16.6424 13.7492 16.7635 14.1495L18.2173 18.9548C18.4918 19.8623 17.4672 20.6067 16.6889 20.0652L12.5681 17.1976C12.2248 16.9587 11.769 16.9587 11.4257 17.1976L7.30489 20.0652C6.52665 20.6067 5.502 19.8623 5.77655 18.9548L7.23033 14.1495C7.35144 13.7492 7.21062 13.3157 6.87732 13.0631L2.87673 10.03C2.12119 9.45722 2.51257 8.25268 3.4605 8.23336L8.47981 8.13108C8.89798 8.12255 9.26668 7.85468 9.404 7.45961L11.0523 2.71757Z" fill="currentColor"/>
</svg>
