<svg width="24" height="24" viewBox="0 0 24 24" xmlns="http://www.w3.org/2000/svg">
<path fill-rule="evenodd" clip-rule="evenodd" d="M12 21C16.9706 21 21 16.9706 21 12C21 7.02944 16.9706 3 12 3C7.02944 3 3 7.02944 3 12C3 16.9706 7.02944 21 12 21ZM12.9999 6.99996C12.9999 6.44768 12.5522 5.99996 11.9999 5.99996C11.4477 5.99996 10.9999 6.44768 10.9999 6.99996V11.382C10.9999 12.1395 11.428 12.832 12.1055 13.1708L15.5527 14.8944C16.0467 15.1414 16.6474 14.9411 16.8944 14.4472C17.1414 13.9532 16.9411 13.3525 16.4472 13.1055L12.9999 11.382V6.99996Z" fill="currentColor"/>
</svg>
