<svg width="24" height="24" viewBox="0 0 24 24" xmlns="http://www.w3.org/2000/svg">
<path fill-rule="evenodd" clip-rule="evenodd" d="M1.48489 11.3061C7.28308 8.77988 11.1495 7.11447 13.084 6.30983C18.6075 4.01241 19.7553 3.61332 20.5033 3.60014C20.6679 3.59724 21.0358 3.63802 21.2741 3.83138C21.4753 3.99466 21.5306 4.21521 21.5571 4.37001C21.5836 4.52481 21.6166 4.87745 21.5904 5.153C21.2911 8.29799 19.9959 15.9301 19.337 19.4525C19.0582 20.943 18.5092 21.4427 17.9777 21.4917C16.8227 21.5979 15.9457 20.7283 14.827 19.995C13.0764 18.8475 12.0875 18.1332 10.3883 17.0135C8.42457 15.7194 9.69757 15.0082 10.8167 13.8458C11.1096 13.5416 16.1986 8.91274 16.2971 8.49282C16.3094 8.44031 16.3209 8.24455 16.2046 8.14118C16.0883 8.03781 15.9166 8.07316 15.7928 8.10127C15.6172 8.14112 12.8207 9.9895 7.40325 13.6464C6.60948 14.1915 5.8905 14.4571 5.24632 14.4431C4.53616 14.4278 3.1701 14.0416 2.15457 13.7115C0.908993 13.3066 -0.0809708 13.0925 0.0052328 12.4049C0.050133 12.0468 0.543351 11.6805 1.48489 11.3061Z" fill="currentColor"/>
</svg>
