<svg width="24" height="24" viewBox="0 0 24 24" xmlns="http://www.w3.org/2000/svg">
<path fill-rule="evenodd" clip-rule="evenodd" d="M15.3154 1.2002H8.68449C2.63284 1.2002 1.19995 2.63308 1.19995 8.68474V15.3156C1.19995 21.3673 2.63284 22.8002 8.68449 22.8002H15.3154C21.3671 22.8002 22.8 21.3673 22.8 15.3156V8.68474C22.8 2.63308 21.3671 1.2002 15.3154 1.2002ZM18.4097 8.05978C18.8822 8.05978 18.9889 8.30367 18.8822 8.63903C18.7157 9.4076 17.3328 11.4463 16.9045 12.0778C16.8231 12.1978 16.7762 12.267 16.7786 12.267C16.6109 12.5414 16.55 12.6633 16.7786 12.9682C16.8613 13.0809 17.0365 13.2529 17.2369 13.4494C17.4429 13.6516 17.6754 13.8798 17.8609 14.0962C18.5316 14.8584 19.0499 15.4986 19.1871 15.9407C19.309 16.3827 19.0956 16.6114 18.6383 16.6114H17.0682C16.6521 16.6114 16.4377 16.3724 15.9806 15.8632C15.7846 15.6448 15.544 15.3767 15.2238 15.0565C14.2939 14.1572 13.8823 14.0352 13.6537 14.0352C13.3336 14.0352 13.2421 14.1114 13.2421 14.5687V15.9864C13.2421 16.3675 13.1202 16.5961 12.1141 16.5961C10.4526 16.5961 8.60811 15.5901 7.31241 13.7151C5.36125 10.9713 4.82773 8.89817 4.82773 8.4866C4.82773 8.25794 4.90394 8.04454 5.36125 8.04454H6.94657C7.3429 8.04454 7.49533 8.21221 7.64777 8.65427C8.42519 10.8951 9.72088 12.8615 10.2544 12.8615C10.4526 12.8615 10.544 12.77 10.544 12.267V9.94997C10.5064 9.29138 10.2771 9.00444 10.1071 8.79166C10.0017 8.65969 9.91905 8.55626 9.91905 8.41038C9.91905 8.22746 10.0715 8.04454 10.3154 8.04454H12.7848C13.1202 8.04454 13.2421 8.22746 13.2421 8.62379V11.7487C13.2421 12.0841 13.3793 12.206 13.486 12.206C13.6842 12.206 13.8519 12.0841 14.2177 11.7182C15.3457 10.453 16.1536 8.50184 16.1536 8.50184C16.2603 8.27319 16.4432 8.05978 16.8396 8.05978H18.4097Z" fill="currentColor"/>
</svg>
