<svg width="24" height="24" viewBox="0 0 24 24" xmlns="http://www.w3.org/2000/svg">
<path fill-rule="evenodd" clip-rule="evenodd" d="M19.6529 4.35407C17.6224 2.32119 14.9221 1.20117 12.045 1.2C6.1171 1.2 1.29248 6.0243 1.29012 11.9541C1.28933 13.8496 1.78455 15.6997 2.72572 17.3308L1.19995 22.9038L6.90126 21.4083C8.47211 22.2651 10.2408 22.7167 12.0407 22.7173H12.0451C12.0455 22.7173 12.0448 22.7173 12.0452 22.7173C17.9725 22.7173 22.7975 17.8925 22.7999 11.9626C22.8011 9.08897 21.6834 6.38688 19.6529 4.35407ZM12.0451 20.901H12.0415C10.4375 20.9004 8.86427 20.4694 7.49182 19.655L7.16541 19.4613L3.78217 20.3488L4.68521 17.0501L4.47267 16.7119C3.57787 15.2887 3.10526 13.6438 3.10596 11.9547C3.10791 7.02617 7.11797 3.01644 12.0487 3.01644C14.4363 3.01725 16.6807 3.94829 18.3684 5.63795C20.0561 7.32756 20.985 9.57346 20.9841 11.962C20.9821 16.8909 16.9721 20.901 12.0451 20.901ZM16.9484 14.2061C16.6796 14.0716 15.3585 13.4216 15.1121 13.3319C14.8658 13.2422 14.6866 13.1974 14.5075 13.4663C14.3284 13.7353 13.8134 14.3407 13.6566 14.52C13.4999 14.6993 13.3431 14.7219 13.0744 14.5873C12.8057 14.4528 11.9398 14.1691 10.9134 13.2535C10.1145 12.5409 9.57519 11.6609 9.41843 11.3919C9.26167 11.1229 9.40172 10.9775 9.53624 10.8435C9.65715 10.723 9.80499 10.5296 9.93935 10.3727C10.0737 10.2158 10.1185 10.1036 10.2081 9.92439C10.2976 9.74498 10.2529 9.58808 10.1857 9.4536C10.1185 9.3191 9.58106 7.99633 9.35713 7.45823C9.13898 6.93431 8.91745 7.00526 8.75251 6.99693C8.59594 6.98915 8.4166 6.98749 8.23747 6.98749C8.05833 6.98749 7.76717 7.05473 7.52086 7.32373C7.27455 7.59279 6.58034 8.24294 6.58034 9.56557C6.58034 10.8883 7.54325 12.1661 7.67762 12.3455C7.81197 12.5249 9.57252 15.2391 12.2682 16.4031C12.9094 16.68 13.41 16.8454 13.8002 16.9692C14.444 17.1738 15.0298 17.1449 15.4928 17.0757C16.0091 16.9986 17.0827 16.4256 17.3067 15.798C17.5306 15.1701 17.5306 14.6321 17.4634 14.52C17.3962 14.4079 17.2171 14.3407 16.9484 14.2061Z" fill="currentColor"/>
</svg>
