<svg width="12" height="12" viewBox="0 0 12 12" xmlns="http://www.w3.org/2000/svg">
<path fill-rule="evenodd" clip-rule="evenodd" d="M11.0999 6.00002C11.0999 8.81668 8.81655 11.1 5.9999 11.1C3.18325 11.1 0.899902 8.81668 0.899902 6.00002C0.899902 3.18337 3.18325 0.900024 5.9999 0.900024C8.81655 0.900024 11.0999 3.18337 11.0999 6.00002ZM6.72541 9.20158H7.84497V9.19969H7.8374V2.79751H6.2191C4.59418 2.79751 3.73582 3.63504 3.73582 4.86627C3.73582 5.85144 4.20712 6.43535 5.04465 7.03345L3.58819 9.20064H4.79197L6.41027 6.7732L5.84718 6.39371C5.1639 5.93661 4.83361 5.57794 4.83361 4.80381C4.83361 4.12148 5.31248 3.66438 6.22667 3.66438H6.72541V9.20158Z" fill="currentColor"/>
</svg>
