<svg width="24" height="24" viewBox="0 0 24 24" xmlns="http://www.w3.org/2000/svg">
<path fill-rule="evenodd" clip-rule="evenodd" d="M20.9078 4.49645C21.8888 4.75866 22.6613 5.53124 22.9235 6.5122C23.4 8.29026 23.4 12 23.4 12C23.4 12 23.4 15.7098 22.9235 17.4878C22.6613 18.4688 21.8888 19.2414 20.9078 19.5036C19.1297 19.98 12 19.98 12 19.98C12 19.98 4.87022 19.98 3.09216 19.5036C2.11119 19.2414 1.33862 18.4688 1.0764 17.4878C0.599976 15.7098 0.599976 12 0.599976 12C0.599976 12 0.599976 8.29026 1.0764 6.5122C1.33862 5.53123 2.11119 4.75866 3.09216 4.49645C4.87022 4.02002 12 4.02002 12 4.02002C12 4.02002 19.1297 4.02002 20.9078 4.49645ZM15.6436 12.0002L9.72022 15.4201V8.58014L15.6436 12.0002Z" fill="currentColor"/>
</svg>
