<svg width="38" height="47" viewBox="0 0 38 47" fill="none" xmlns="http://www.w3.org/2000/svg">
<path fill-rule="evenodd" clip-rule="evenodd" d="M21.5686 45.3521C26.6863 41.1586 37.6666 30.8224 37.6666 19.3334C37.6666 9.02404 29.3092 0.666687 18.9999 0.666687C8.6906 0.666687 0.333252 9.02404 0.333252 19.3334C0.333252 30.8224 11.3135 41.1586 16.4312 45.3521C17.9439 46.5916 20.056 46.5916 21.5686 45.3521ZM18.9999 24C21.5772 24 23.6666 21.9107 23.6666 19.3334C23.6666 16.756 21.5772 14.6667 18.9999 14.6667C16.4226 14.6667 14.3333 16.756 14.3333 19.3334C14.3333 21.9107 16.4226 24 18.9999 24Z" fill="#2C69A3"/>
</svg>
