<svg width="22" height="28" viewBox="0 0 22 28" fill="none" xmlns="http://www.w3.org/2000/svg">
<path d="M0 6.47119L3.22933 12.2434V15.7643L0.00377777 21.5252L0 6.47119Z" fill="#31577C" fill-opacity="0.72"/>
<path d="M12.3993 10.1427L15.4253 8.288L21.6182 8.28223L12.3993 13.9298V10.1427Z" fill="#31577C"/>
<path d="M12.3822 6.43694L12.3993 14.0792L9.16245 12.0903V0.666504L12.3824 6.43694H12.3822Z" fill="#31577C" fill-opacity="0.72"/>
<path d="M21.6182 8.28227L15.4251 8.28805L12.3822 6.43694L9.16245 0.666504L21.618 8.28227H21.6182Z" fill="#31577C" fill-opacity="0.72"/>
<path d="M12.3993 21.5573V17.8495L9.16245 15.8984L9.16423 27.3335L12.3993 21.5573Z" fill="#31577C" fill-opacity="0.72"/>
<path d="M15.4178 19.7194L3.22911 12.2434L0 6.47119L21.6051 19.7118L15.4175 19.7194H15.4178Z" fill="#31577C" fill-opacity="0.72"/>
<path d="M9.16437 27.333L12.399 21.5568L15.4175 19.719L21.6048 19.7114L9.16437 27.333Z" fill="#31577C"/>
<path d="M0.00382996 21.5252L9.18893 15.8986L6.10093 14.0039L3.22938 15.7643L0.00382996 21.5252Z" fill="#31577C"/>
</svg>
