<svg width="28" height="18" viewBox="0 0 28 18" fill="none" xmlns="http://www.w3.org/2000/svg">
<path fill-rule="evenodd" clip-rule="evenodd" d="M14 1.51555C11.588 3.13007 10 5.87958 10 9C10 12.1204 11.588 14.8699 14 16.4844C12.5699 17.4417 10.8501 18 9 18C4.02944 18 0 13.9706 0 9C0 4.02944 4.02944 0 9 0C10.8501 0 12.5699 0.558272 14 1.51555Z" fill="#31577C" fill-opacity="0.72"/>
<path fill-rule="evenodd" clip-rule="evenodd" d="M14 1.51555C16.412 3.13007 18 5.87958 18 9C18 12.1204 16.412 14.8699 14 16.4844C15.4301 17.4417 17.1499 18 19 18C23.9706 18 28 13.9706 28 9C28 4.02944 23.9706 0 19 0C17.1499 0 15.4301 0.558272 14 1.51555Z" fill="#31577C" fill-opacity="0.72"/>
<path fill-rule="evenodd" clip-rule="evenodd" d="M13.9999 1.51562C16.4119 3.13013 18 5.87969 18 9.00017C18 12.1205 16.412 14.87 14.0001 16.4845C11.5881 14.87 10 12.1205 10 8.99998C10 5.87962 11.588 3.13016 13.9999 1.51562Z" fill="#31577C"/>
</svg>
