<svg width="38" height="14" viewBox="0 0 38 14" fill="none" xmlns="http://www.w3.org/2000/svg">
<path fill-rule="evenodd" clip-rule="evenodd" d="M19.6526 4.77312C19.631 6.48246 21.1761 7.43635 22.3399 8.0035C23.5358 8.58547 23.9374 8.95863 23.9329 9.47895C23.9238 10.2754 22.9789 10.6268 22.0946 10.6405C20.5518 10.6645 19.6549 10.224 18.9418 9.89087L18.3861 12.4913C19.1016 12.8211 20.4263 13.1087 21.8002 13.1212C25.0249 13.1212 27.1347 11.5294 27.1462 9.06133C27.1587 5.92908 22.8135 5.75561 22.8431 4.3555C22.8534 3.93104 23.2585 3.47799 24.1462 3.36275C24.5855 3.30461 25.7985 3.26006 27.1735 3.89333L27.7132 1.37735C26.9738 1.10802 26.0233 0.850098 24.84 0.850098C21.8048 0.850098 19.6698 2.46358 19.6526 4.77312V4.77312ZM32.8994 1.06689C32.3106 1.06689 31.8143 1.41041 31.5929 1.93756L26.9864 12.9364H30.2088L30.85 11.1642H34.7879L35.1599 12.9364H38L35.5215 1.06689H32.8994ZM33.3501 4.27333L34.2801 8.73035H31.7332L33.3501 4.27333ZM15.7457 1.06689L13.2057 12.9364H16.2763L18.8151 1.06689H15.7457ZM11.2031 1.06689L8.00689 9.14569L6.71403 2.27643C6.56231 1.50968 5.96325 1.06689 5.29796 1.06689H0.0730547L0 1.41155C1.07265 1.6443 2.2913 2.01974 3.02955 2.4214C3.48137 2.66669 3.61038 2.8812 3.75868 3.46431L6.2074 12.9364H9.45269L14.4277 1.06689H11.2031Z" fill="#31577C" fill-opacity="0.72"/>
</svg>
