<svg width="20" height="20" viewBox="0 0 20 20" fill="none" xmlns="http://www.w3.org/2000/svg">
<path fill-rule="evenodd" clip-rule="evenodd" d="M7.92067 2.5C10.0258 2.5 10.0258 6.66667 7.92067 6.66667C5.81557 6.66667 5.81557 2.5 7.92067 2.5ZM15.7967 13.7878C15.3429 11.1395 13.6954 8.33338 10.007 8.33338C6.31712 8.33338 4.66882 11.1419 4.21552 13.7912C3.73176 16.6184 6.22917 16.6981 8.7777 15.3819C9.2303 15.1481 9.65568 15 10.007 15C10.3575 15 10.7818 15.1475 11.2333 15.3804C13.7836 16.6962 16.2813 16.6163 15.7967 13.7878ZM12.0841 2.5C14.1892 2.5 14.1892 6.66667 12.0841 6.66667C9.97898 6.66667 9.97898 2.5 12.0841 2.5ZM4.17062 5C6.27572 5 6.27572 9.16667 4.17062 9.16667C2.06552 9.16667 2.06552 5 4.17062 5ZM15.8372 5C17.9423 5 17.9423 9.16667 15.8372 9.16667C13.7321 9.16667 13.7321 5 15.8372 5Z" fill="#31577C" fill-opacity="0.4"/>
</svg>
