<svg width="0" height="0" class="hidden">
  <symbol xmlns="http://www.w3.org/2000/svg" viewBox="0 0 20 20" id="ic_arr_hor">
    <path fill-rule="evenodd" clip-rule="evenodd" d="M6.3284 2.2591C5.91921 2.63002 5.88818 3.26243 6.2591 3.67162L11.9956 10L6.2591 16.3284C5.88818 16.7376 5.91921 17.37 6.3284 17.7409C6.73759 18.1118 7.36999 18.0808 7.74091 17.6716L13.4774 11.3432C14.1683 10.581 14.1683 9.419 13.4774 8.65679L7.74091 2.3284C7.36999 1.91921 6.73759 1.88818 6.3284 2.2591Z" fill="currentColor"></path>
  </symbol>
  <symbol xmlns="http://www.w3.org/2000/svg" viewBox="0 0 16 16" id="ic_arr_ver">
    <path fill-rule="evenodd" clip-rule="evenodd" d="M13.7568 5.3464C13.3958 4.92843 12.7643 4.88225 12.3463 5.24325L8.00223 8.99526L3.65324 5.24292C3.23509 4.88213 2.60364 4.92864 2.24285 5.34679C1.88206 5.76494 1.92857 6.3964 2.34672 6.75718L6.69571 10.5095C7.44663 11.1574 8.55894 11.1571 9.30953 10.5089L13.6536 6.75685C14.0716 6.39585 14.1178 5.76437 13.7568 5.3464Z" fill="currentColor"></path>
  </symbol>
  <symbol xmlns="http://www.w3.org/2000/svg" viewBox="0 0 24 24" id="ic_cert">
    <path d="M5 5C5 3.89543 5.89543 3 7 3H17C18.1046 3 19 3.89543 19 5V13C19 14.1046 18.1046 15 17 15H14.5C13.6716 15 13 15.6716 13 16.5V19C13 20.1046 12.1046 21 11 21H7C5.89543 21 5 20.1046 5 19V5Z" fill="currentColor"></path>
  </symbol>
  <symbol xmlns="http://www.w3.org/2000/svg" viewBox="0 0 24 24" id="ic_chat">
    <path d="M9.49902 19C13.9173 19 17.499 15.4183 17.499 11C17.499 6.58172 13.9173 3 9.49902 3C5.08075 3 1.49902 6.58172 1.49902 11C1.49902 12.0442 1.69909 13.0417 2.06298 13.9562C2.34583 14.6671 2.3505 15.485 1.90934 16.1101C1.37143 16.8722 0.896138 17.4933 0.659291 17.7974C0.556006 17.9301 0.5 18.0916 0.5 18.2597C0.5 18.6686 0.831449 19 1.24031 19H1.5C2.30323 19 3.59065 18.6774 4.84378 18.2913C5.37338 18.1282 5.94244 18.1894 6.45485 18.4004C7.39323 18.7869 8.42124 19 9.49902 19Z" fill="currentColor"></path>
    <path d="M12.1416 20.6474C16.3826 19.4887 19.4998 15.6084 19.4998 11C19.4998 9.11126 18.9762 7.34482 18.0662 5.83793C20.6935 7.14943 22.4979 9.86399 22.4979 13C22.4979 14.0436 22.2981 15.0406 21.9346 15.9546C21.6519 16.6654 21.6474 17.4832 22.0885 18.1081C22.6272 18.8711 23.1033 19.493 23.3405 19.7974C23.4438 19.93 23.4998 20.0916 23.4998 20.2598C23.4998 20.6686 23.1684 21 22.7596 21H22.4998C21.6956 21 20.4075 20.6772 19.1542 20.291C18.6244 20.1278 18.0552 20.1891 17.5427 20.4002C16.6042 20.7868 15.5759 21 14.4979 21C13.6778 21 12.8865 20.8766 12.1416 20.6474Z" fill="currentColor"></path>
  </symbol>
  <symbol xmlns="http://www.w3.org/2000/svg" viewBox="0 0 25 24" id="ic_check">
    <path d="M6.59375 12.8334L10.7604 17.8334L18.2604 6.16675" stroke="currentColor" stroke-width="2" stroke-linecap="round" stroke-linejoin="round" fill="none"></path>
  </symbol>
  <symbol xmlns="http://www.w3.org/2000/svg" viewBox="0 0 24 24" id="ic_close">
    <path fill-rule="evenodd" clip-rule="evenodd" d="M20.8839 20.8838C21.372 20.3957 21.372 19.6042 20.8839 19.1161L13.7678 11.9999L20.8839 4.88383C21.372 4.39567 21.372 3.60422 20.8839 3.11606C20.3957 2.62791 19.6043 2.62791 19.1161 3.11606L12 10.2322L4.88388 3.11606C4.39573 2.62791 3.60427 2.62791 3.11612 3.11606C2.62796 3.60422 2.62796 4.39568 3.11612 4.88383L10.2322 11.9999L3.11613 19.1161C2.62798 19.6042 2.62798 20.3957 3.11613 20.8838C3.60429 21.372 4.39574 21.372 4.8839 20.8838L12 13.7677L19.1161 20.8838C19.6043 21.372 20.3957 21.372 20.8839 20.8838Z" fill="currentColor"></path>
  </symbol>
  <symbol xmlns="http://www.w3.org/2000/svg" viewBox="0 0 24 24" id="ic_email">
    <path fill-rule="evenodd" clip-rule="evenodd" d="M9.91414 5.58037C11.2698 5.13988 12.7302 5.13988 14.0859 5.58037C15.4416 6.02086 16.623 6.87923 17.4609 8.03245C18.2969 9.18311 18.748 10.5684 18.75 11.9905C18.75 11.9937 18.75 11.9968 18.75 12V13C18.75 13.4142 18.4142 13.75 18 13.75C17.5857 13.75 17.25 13.4142 17.25 13V9C17.25 8.30964 16.6903 7.75 16 7.75C15.3096 7.75 14.75 8.30964 14.75 9V9.09522C14.0331 8.41636 13.0652 8 12 8C9.79086 8 8 9.79086 8 12C7.99999 14.2091 9.79085 16 12 16C13.2609 16 14.3855 15.4166 15.1187 14.505C15.6616 15.5422 16.7481 16.25 18 16.25C19.7949 16.25 21.25 14.7949 21.25 13V12.0104C21.25 12.0069 21.25 12.0035 21.25 12C21.25 10.0466 20.6316 8.14333 19.4834 6.56299C18.3352 4.98265 16.7162 3.80636 14.8584 3.20273C13.0006 2.59909 10.9994 2.59909 9.14159 3.20273C7.28379 3.80636 5.66478 4.98265 4.51659 6.56299C3.36841 8.14333 2.75 10.0466 2.75 12C2.75 13.9534 3.36841 15.8567 4.51659 17.437C5.66478 19.0174 7.28379 20.1936 9.14159 20.7973C10.9994 21.4009 13.0006 21.4009 14.8584 20.7973C15.515 20.5839 15.8743 19.8787 15.661 19.2222C15.4476 18.5656 14.7424 18.2063 14.0859 18.4196C12.7302 18.8601 11.2698 18.8601 9.91413 18.4196C8.55844 17.9791 7.377 17.1208 6.53914 15.9676C5.70127 14.8143 5.25 13.4255 5.25 12C5.25 10.5745 5.70127 9.18567 6.53914 8.03245C7.377 6.87923 8.55844 6.02086 9.91414 5.58037ZM12 10.5C11.1716 10.5 10.5 11.1716 10.5 12C10.5 12.8284 11.1716 13.5 12 13.5C12.8284 13.5 13.5 12.8284 13.5 12C13.5 11.1716 12.8284 10.5 12 10.5Z" fill="currentColor"></path>
  </symbol>
  <symbol xmlns="http://www.w3.org/2000/svg" viewBox="0 0 32 32" id="ic_eye">
    <path fill-rule="evenodd" clip-rule="evenodd" d="M28 16C28 22.6274 22.6274 28 16 28C9.37258 28 4 22.6274 4 16C4 9.37258 9.37258 4 16 4C22.6274 4 28 9.37258 28 16ZM25.3333 16C25.3333 17.3333 24 22.6667 16 22.6667C8 22.6667 6.66667 17.3333 6.66667 16C6.66667 14.6667 8 9.33333 16 9.33333C24 9.33333 25.3333 14.6667 25.3333 16ZM18.6667 16C19.1462 16 19.5962 15.8734 19.9851 15.6518C19.9949 15.7666 20 15.8827 20 16C20 18.2091 18.2091 20 16 20C13.7909 20 12 18.2091 12 16C12 13.7909 13.7909 12 16 12C16.1173 12 16.2334 12.005 16.3482 12.0149C16.1266 12.4038 16 12.8538 16 13.3333C16 14.8061 17.1939 16 18.6667 16Z" fill="currentColor"></path>
  </symbol>
  <symbol xmlns="http://www.w3.org/2000/svg" viewBox="0 0 24 24" id="ic_fb">
    <path fill-rule="evenodd" clip-rule="evenodd" d="M12 1.2002C17.9653 1.2002 22.8 6.03488 22.8 12.0002C22.8 17.3918 18.8512 21.8594 13.6875 22.6694V15.1221H16.2039L16.6828 12.0002H13.6875V9.9752C13.6875 9.86841 13.694 9.76195 13.708 9.65741C13.8063 8.92562 14.2728 8.2877 15.4467 8.2877H16.8093V5.62988C16.8093 5.62988 15.5732 5.41895 14.392 5.41895C11.924 5.41895 10.3125 6.91449 10.3125 9.62082V12.0002H7.57026V15.1221H10.3125V22.6694C5.1487 21.8594 1.19995 17.3918 1.19995 12.0002C1.19995 6.03488 6.03464 1.2002 12 1.2002Z" fill="currentColor"></path>
  </symbol>
  <symbol xmlns="http://www.w3.org/2000/svg" viewBox="0 0 12 12" id="ic_google">
    <path fill-rule="evenodd" clip-rule="evenodd" d="M7.95493 3.68378C7.42368 3.17803 6.75218 2.91878 5.99993 2.91878C4.66968 2.91878 3.54342 3.81553 3.13967 5.02678L3.13965 5.02677C3.03765 5.33277 2.97816 5.66001 2.97816 6.00001C2.97816 6.34001 3.03341 6.66726 3.13966 6.97326H3.13967C3.54342 8.18451 4.66968 9.08126 5.99993 9.08126C6.68843 9.08126 7.27068 8.89426 7.72968 8.58826L7.72971 8.58828C8.26518 8.22703 8.62641 7.69579 8.74966 7.06681H5.9999V5.15006H10.8024C10.8534 5.46031 10.8832 5.77906 10.8832 6.11481C10.8832 7.66606 10.3307 8.97507 9.37016 9.86332H9.37012C8.52863 10.641 7.3769 11.1 5.99993 11.1C4.00667 11.1 2.28542 9.95251 1.44817 8.28651L1.44815 8.28651C1.09965 7.59801 0.899902 6.82451 0.899902 6.00001C0.899902 5.17551 1.09965 4.40201 1.44815 3.71351H1.44818C2.28544 2.04752 4.00668 0.900024 5.99993 0.900024C7.37693 0.900024 8.52868 1.40578 9.40843 2.23028L7.95493 3.68378Z" fill="currentColor"></path>
  </symbol>
  <symbol xmlns="http://www.w3.org/2000/svg" viewBox="0 0 24 24" id="ic_instagram">
    <path d="M11.9993 3.14727C14.8831 3.14727 15.2243 3.15841 16.3633 3.21028C17.4161 3.2583 17.988 3.43406 18.3687 3.58195C18.8382 3.75482 19.2631 4.0308 19.6118 4.38959C19.9706 4.73838 20.2466 5.1632 20.4195 5.63277C20.5674 6.01344 20.7431 6.5853 20.7911 7.63814C20.843 8.77672 20.8542 9.11838 20.8542 12.0021C20.8542 14.8859 20.843 15.2271 20.7911 16.3661C20.7431 17.4189 20.5674 17.9908 20.4195 18.3715C20.2398 18.8372 19.9646 19.2602 19.6116 19.6132C19.2587 19.9662 18.8357 20.2413 18.37 20.421C17.9893 20.5689 17.4174 20.7447 16.3646 20.7927C15.226 20.8445 14.8843 20.8557 12.0006 20.8557C9.11685 20.8557 8.77519 20.8445 7.63661 20.7927C6.58377 20.7447 6.01191 20.5689 5.63124 20.421C5.16167 20.2481 4.73685 19.9722 4.38806 19.6134C4.02927 19.2646 3.75329 18.8398 3.58042 18.3702C3.43253 17.9895 3.25677 17.4177 3.20875 16.3648C3.15688 15.2262 3.14574 14.8846 3.14574 12.0008C3.14574 9.11709 3.15688 8.77586 3.20875 7.63685C3.25677 6.58401 3.43253 6.01215 3.58042 5.63148C3.75329 5.16191 4.02927 4.73709 4.38806 4.3883C4.73685 4.02952 5.16167 3.75353 5.63124 3.58067C6.01191 3.43277 6.58377 3.25701 7.63661 3.209C8.77519 3.15713 9.11685 3.14598 12.0006 3.14598L11.9993 3.14727ZM12.0006 1.2002C9.06755 1.2002 8.69974 1.21263 7.54787 1.26535C6.39601 1.31808 5.61195 1.50156 4.92605 1.7682C4.20515 2.0393 3.55208 2.46444 3.01242 3.01395C2.46291 3.55361 2.03777 4.20668 1.76667 4.92758C1.50003 5.61348 1.31741 6.39882 1.26511 7.54812C1.21281 8.69741 1.19995 9.06779 1.19995 12.0008C1.19995 14.9339 1.21238 15.3017 1.26511 16.4536C1.31784 17.6054 1.50003 18.3882 1.76667 19.0741C2.03788 19.7947 2.46301 20.4475 3.01242 20.9869C3.55204 21.5365 4.20511 21.9618 4.92605 22.233C5.61195 22.5001 6.39815 22.6827 7.54744 22.735C8.69674 22.7873 9.06712 22.8002 12.0002 22.8002C14.9332 22.8002 15.301 22.7878 16.4529 22.735C17.6048 22.6823 18.3867 22.5001 19.0726 22.233C19.7901 21.9556 20.4418 21.5313 20.9857 20.9873C21.5297 20.4433 21.9541 19.7916 22.2315 19.0741C22.4986 18.3882 22.6812 17.602 22.7335 16.4527C22.7858 15.3034 22.7987 14.933 22.7987 12C22.7987 9.06694 22.7862 8.69913 22.7335 7.54726C22.6808 6.39539 22.4986 5.61348 22.2315 4.92758C21.9603 4.20699 21.5352 3.55422 20.9858 3.01481C20.4463 2.46504 19.7934 2.0396 19.0726 1.7682C18.3867 1.50156 17.6013 1.31894 16.452 1.26664C15.3027 1.21434 14.9323 1.20148 11.9993 1.20148L12.0006 1.2002Z" fill="currentColor"></path>
    <path d="M11.9995 6.45557C10.9028 6.45557 9.8306 6.7808 8.91866 7.39014C8.00672 7.99948 7.29595 8.86556 6.87622 9.87885C6.4565 10.8921 6.34669 12.0071 6.56066 13.0829C6.77463 14.1586 7.30278 15.1467 8.07832 15.9222C8.85387 16.6978 9.84197 17.2259 10.9177 17.4399C11.9934 17.6538 13.1084 17.544 14.1217 17.1243C15.135 16.7046 16.0011 15.9938 16.6104 15.0819C17.2197 14.1699 17.545 13.0978 17.545 12.001C17.545 10.5303 16.9607 9.11976 15.9207 8.07979C14.8808 7.03982 13.4703 6.45557 11.9995 6.45557V6.45557ZM11.9995 15.6019C11.2873 15.6019 10.5911 15.3907 9.99897 14.9951C9.4068 14.5994 8.94526 14.037 8.67271 13.379C8.40016 12.721 8.32885 11.997 8.4678 11.2985C8.60674 10.6 8.94969 9.95836 9.45329 9.45476C9.95689 8.95116 10.5985 8.6082 11.297 8.46926C11.9955 8.33032 12.7196 8.40163 13.3776 8.67417C14.0355 8.94672 14.5979 9.40826 14.9936 10.0004C15.3893 10.5926 15.6005 11.2888 15.6005 12.001C15.6005 12.956 15.2211 13.8719 14.5458 14.5472C13.8705 15.2225 12.9546 15.6019 11.9995 15.6019Z" fill="currentColor"></path>
    <path d="M17.7643 7.53176C18.48 7.53176 19.0602 6.95156 19.0602 6.23585C19.0602 5.52014 18.48 4.93994 17.7643 4.93994C17.0486 4.93994 16.4684 5.52014 16.4684 6.23585C16.4684 6.95156 17.0486 7.53176 17.7643 7.53176Z" fill="currentColor"></path>
  </symbol>
  <symbol xmlns="http://www.w3.org/2000/svg" viewBox="0 0 24 24" id="ic_location">
    <path fill-rule="evenodd" clip-rule="evenodd" d="M13.1009 21.1509C15.2942 19.3537 20 14.9239 20 10C20 5.58172 16.4183 2 12 2C7.58172 2 4 5.58172 4 10C4 14.9239 8.70584 19.3537 10.8991 21.1509C11.5474 21.6821 12.4526 21.6821 13.1009 21.1509ZM12 12C13.1046 12 14 11.1046 14 10C14 8.89543 13.1046 8 12 8C10.8954 8 10 8.89543 10 10C10 11.1046 10.8954 12 12 12Z" fill="currentColor"></path>
  </symbol>
  <symbol xmlns="http://www.w3.org/2000/svg" viewBox="0 0 24 24" id="ic_menu">
    <path d="M4 8H20M4 16H20" stroke="currentColor" stroke-width="2.5" stroke-linecap="round" fill="none"></path>
  </symbol>
  <symbol xmlns="http://www.w3.org/2000/svg" viewBox="0 0 24 24" id="ic_notice">
    <path fill-rule="evenodd" clip-rule="evenodd" d="M12 21C16.9706 21 21 16.9706 21 12C21 7.02944 16.9706 3 12 3C7.02944 3 3 7.02944 3 12C3 16.9706 7.02944 21 12 21ZM13 7.50005C13 6.94777 12.5523 6.50005 12 6.50005C11.4477 6.50005 11 6.94777 11 7.50005V7.55005C11 8.10233 11.4477 8.55005 12 8.55005C12.5523 8.55005 13 8.10233 13 7.55005V7.50005ZM13 11.5C13 10.9478 12.5523 10.5001 12 10.5001C11.4477 10.5001 11 10.9478 11 11.5V16.5C11 17.0523 11.4477 17.5 12 17.5C12.5523 17.5 13 17.0523 13 16.5V11.5Z" fill="currentColor"></path>
  </symbol>
  <symbol xmlns="http://www.w3.org/2000/svg" viewBox="0 0 20 20" id="ic_paw">
    <path fill-rule="evenodd" clip-rule="evenodd" d="M7.91872 2.5C10.0238 2.5 10.0238 6.66667 7.91872 6.66667C5.81362 6.66667 5.81362 2.5 7.91872 2.5ZM15.7947 13.7878C15.341 11.1395 13.6934 8.33338 10.0051 8.33338C6.31516 8.33338 4.66686 11.1419 4.21356 13.7912C3.7298 16.6184 6.22722 16.6981 8.77575 15.3819C9.22834 15.1481 9.65373 15 10.0051 15C10.3556 15 10.7799 15.1475 11.2313 15.3804C13.7817 16.6962 16.2793 16.6163 15.7947 13.7878ZM12.0821 2.5C14.1872 2.5 14.1872 6.66667 12.0821 6.66667C9.97703 6.66667 9.97703 2.5 12.0821 2.5ZM4.16867 5C6.27377 5 6.27377 9.16667 4.16867 9.16667C2.06357 9.16667 2.06357 5 4.16867 5ZM15.8353 5C17.9404 5 17.9404 9.16667 15.8353 9.16667C13.7302 9.16667 13.7302 5 15.8353 5Z" fill="currentColor"></path>
  </symbol>
  <symbol xmlns="http://www.w3.org/2000/svg" viewBox="0 0 24 24" id="ic_phone">
    <path d="M6.09484 19.8716C4.85999 20.0043 3.76405 19.3209 2.88585 18.4427L2.80704 18.3639C2.02599 17.5829 2.02599 16.3165 2.80704 15.5355L5.6358 12.7067C6.41699 11.9255 7.68358 11.9257 8.46457 12.7071L9.171 13.4138C9.5615 13.8045 10.1948 13.8046 10.5854 13.414L13.4138 10.5856C13.8043 10.1951 13.8043 9.56208 13.414 9.17153L12.7065 8.46374C11.9258 7.68264 11.926 6.41657 12.7069 5.63566L15.535 2.80757C16.316 2.02652 17.5823 2.02652 18.3634 2.80757L18.4435 2.88767C19.3209 3.76504 20.0038 4.85977 19.8717 6.09351C19.6758 7.92271 18.6673 10.9889 14.8286 14.8276C10.9909 18.6654 7.92463 19.6749 6.09484 19.8716Z" fill="currentColor"></path>
  </symbol>
  <symbol xmlns="http://www.w3.org/2000/svg" viewBox="0 0 24 24" id="ic_question">
    <path fill-rule="evenodd" clip-rule="evenodd" d="M12 21C16.9706 21 21 16.9706 21 12C21 7.02944 16.9706 3 12 3C7.02944 3 3 7.02944 3 12C3 16.9706 7.02944 21 12 21ZM10.0018 9.45498C10.0018 8.6514 10.6532 7.99998 11.4568 7.99998H12.3962C13.2829 7.99998 14.0018 8.71881 14.0018 9.60553C14.0018 10.1423 13.7335 10.6437 13.2868 10.9414L11.4471 12.1679C10.9876 12.4743 10.8634 13.0951 11.1697 13.5547C11.4761 14.0142 12.097 14.1384 12.5565 13.832L14.3962 12.6055C15.3993 11.9368 16.0018 10.8111 16.0018 9.60553C16.0018 7.61424 14.3875 5.99998 12.3962 5.99998H11.4568C9.54864 5.99998 8.00178 7.54683 8.00178 9.45498V9.49998C8.00178 10.0523 8.44949 10.5 9.00178 10.5C9.55406 10.5 10.0018 10.0523 10.0018 9.49998V9.45498ZM13.0018 16.95C13.0018 16.3977 12.5541 15.95 12.0018 15.95C11.4495 15.95 11.0018 16.3977 11.0018 16.95V17C11.0018 17.5523 11.4495 18 12.0018 18C12.5541 18 13.0018 17.5523 13.0018 17V16.95Z" fill="currentColor"></path>
  </symbol>
  <symbol xmlns="http://www.w3.org/2000/svg" viewBox="0 0 24 24" id="ic_search">
    <path fill-rule="evenodd" clip-rule="evenodd" d="M5.25 10C5.25 7.37665 7.37665 5.25 10 5.25C12.6234 5.25 14.75 7.37665 14.75 10C14.75 12.6234 12.6234 14.75 10 14.75C7.37665 14.75 5.25 12.6234 5.25 10ZM10 2.75C5.99594 2.75 2.75 5.99594 2.75 10C2.75 14.0041 5.99594 17.25 10 17.25C11.5506 17.25 12.9876 16.7632 14.1663 15.9341L19.1161 20.8839C19.6043 21.372 20.3957 21.372 20.8839 20.8839C21.372 20.3957 21.372 19.6043 20.8839 19.1161L15.9341 14.1663C16.7632 12.9876 17.25 11.5506 17.25 10C17.25 5.99594 14.0041 2.75 10 2.75Z" fill="currentColor"></path>
  </symbol>
  <symbol xmlns="http://www.w3.org/2000/svg" viewBox="0 0 20 20" id="ic_sort">
    <path d="M13.7487 15.8333V4.16663M13.7487 4.16663L16.6654 7.08329M13.7487 4.16663L10.832 7.08329M6.2487 4.16663V15.8333M6.2487 15.8333L3.33203 12.9166M6.2487 15.8333L9.16536 12.9166" stroke="currentColor" stroke-width="2" stroke-linecap="round" stroke-linejoin="round" fill="none"></path>
  </symbol>
  <symbol xmlns="http://www.w3.org/2000/svg" viewBox="0 0 24 24" id="ic_star">
    <path d="M11.0523 2.71757C11.3636 1.82201 12.6302 1.82201 12.9415 2.71757L14.5898 7.45961C14.7271 7.85468 15.0958 8.12255 15.514 8.13108L20.5333 8.23336C21.4812 8.25268 21.8726 9.45722 21.1171 10.03L17.1165 13.0631C16.7832 13.3157 16.6424 13.7492 16.7635 14.1495L18.2173 18.9548C18.4918 19.8623 17.4672 20.6067 16.6889 20.0652L12.5681 17.1976C12.2248 16.9587 11.769 16.9587 11.4257 17.1976L7.30489 20.0652C6.52665 20.6067 5.502 19.8623 5.77655 18.9548L7.23033 14.1495C7.35144 13.7492 7.21062 13.3157 6.87732 13.0631L2.87673 10.03C2.12119 9.45722 2.51257 8.25268 3.4605 8.23336L8.47981 8.13108C8.89798 8.12255 9.26668 7.85468 9.404 7.45961L11.0523 2.71757Z" fill="currentColor"></path>
  </symbol>
  <symbol xmlns="http://www.w3.org/2000/svg" viewBox="0 0 24 24" id="ic_telegram">
    <path fill-rule="evenodd" clip-rule="evenodd" d="M1.48489 11.3061C7.28308 8.77988 11.1495 7.11447 13.084 6.30983C18.6075 4.01241 19.7553 3.61332 20.5033 3.60014C20.6679 3.59724 21.0358 3.63802 21.2741 3.83138C21.4753 3.99466 21.5306 4.21521 21.5571 4.37001C21.5836 4.52481 21.6166 4.87745 21.5904 5.153C21.2911 8.29799 19.9959 15.9301 19.337 19.4525C19.0582 20.943 18.5092 21.4427 17.9777 21.4917C16.8227 21.5979 15.9457 20.7283 14.827 19.995C13.0764 18.8475 12.0875 18.1332 10.3883 17.0135C8.42457 15.7194 9.69757 15.0082 10.8167 13.8458C11.1096 13.5416 16.1986 8.91274 16.2971 8.49282C16.3094 8.44031 16.3209 8.24455 16.2046 8.14118C16.0883 8.03781 15.9166 8.07316 15.7928 8.10127C15.6172 8.14112 12.8207 9.9895 7.40325 13.6464C6.60948 14.1915 5.8905 14.4571 5.24632 14.4431C4.53616 14.4278 3.1701 14.0416 2.15457 13.7115C0.908993 13.3066 -0.0809708 13.0925 0.0052328 12.4049C0.050133 12.0468 0.543351 11.6805 1.48489 11.3061Z" fill="currentColor"></path>
  </symbol>
  <symbol xmlns="http://www.w3.org/2000/svg" viewBox="0 0 24 24" id="ic_time">
    <path fill-rule="evenodd" clip-rule="evenodd" d="M12 21C16.9706 21 21 16.9706 21 12C21 7.02944 16.9706 3 12 3C7.02944 3 3 7.02944 3 12C3 16.9706 7.02944 21 12 21ZM12.9999 6.99996C12.9999 6.44768 12.5522 5.99996 11.9999 5.99996C11.4477 5.99996 10.9999 6.44768 10.9999 6.99996V11.382C10.9999 12.1395 11.428 12.832 12.1055 13.1708L15.5527 14.8944C16.0467 15.1414 16.6474 14.9411 16.8944 14.4472C17.1414 13.9532 16.9411 13.3525 16.4472 13.1055L12.9999 11.382V6.99996Z" fill="currentColor"></path>
  </symbol>
  <symbol xmlns="http://www.w3.org/2000/svg" viewBox="0 0 24 24" id="ic_video">
    <path d="M5 19.2938V4.7065C5 3.52835 6.29592 2.81008 7.295 3.4345L18.9648 10.7281C19.9048 11.3156 19.9048 12.6846 18.9648 13.2721L7.295 20.5658C6.29593 21.1902 5 20.4719 5 19.2938Z" fill="currentColor"></path>
  </symbol>
  <symbol xmlns="http://www.w3.org/2000/svg" viewBox="0 0 24 24" id="ic_vk">
    <path fill-rule="evenodd" clip-rule="evenodd" d="M15.3154 1.2002H8.68449C2.63284 1.2002 1.19995 2.63308 1.19995 8.68474V15.3156C1.19995 21.3673 2.63284 22.8002 8.68449 22.8002H15.3154C21.3671 22.8002 22.8 21.3673 22.8 15.3156V8.68474C22.8 2.63308 21.3671 1.2002 15.3154 1.2002ZM18.4097 8.05978C18.8822 8.05978 18.9889 8.30367 18.8822 8.63903C18.7157 9.4076 17.3328 11.4463 16.9045 12.0778C16.8231 12.1978 16.7762 12.267 16.7786 12.267C16.6109 12.5414 16.55 12.6633 16.7786 12.9682C16.8613 13.0809 17.0365 13.2529 17.2369 13.4494C17.4429 13.6516 17.6754 13.8798 17.8609 14.0962C18.5316 14.8584 19.0499 15.4986 19.1871 15.9407C19.309 16.3827 19.0956 16.6114 18.6383 16.6114H17.0682C16.6521 16.6114 16.4377 16.3724 15.9806 15.8632C15.7846 15.6448 15.544 15.3767 15.2238 15.0565C14.2939 14.1572 13.8823 14.0352 13.6537 14.0352C13.3336 14.0352 13.2421 14.1114 13.2421 14.5687V15.9864C13.2421 16.3675 13.1202 16.5961 12.1141 16.5961C10.4526 16.5961 8.60811 15.5901 7.31241 13.7151C5.36125 10.9713 4.82773 8.89817 4.82773 8.4866C4.82773 8.25794 4.90394 8.04454 5.36125 8.04454H6.94657C7.3429 8.04454 7.49533 8.21221 7.64777 8.65427C8.42519 10.8951 9.72088 12.8615 10.2544 12.8615C10.4526 12.8615 10.544 12.77 10.544 12.267V9.94997C10.5064 9.29138 10.2771 9.00444 10.1071 8.79166C10.0017 8.65969 9.91905 8.55626 9.91905 8.41038C9.91905 8.22746 10.0715 8.04454 10.3154 8.04454H12.7848C13.1202 8.04454 13.2421 8.22746 13.2421 8.62379V11.7487C13.2421 12.0841 13.3793 12.206 13.486 12.206C13.6842 12.206 13.8519 12.0841 14.2177 11.7182C15.3457 10.453 16.1536 8.50184 16.1536 8.50184C16.2603 8.27319 16.4432 8.05978 16.8396 8.05978H18.4097Z" fill="currentColor"></path>
  </symbol>
  <symbol xmlns="http://www.w3.org/2000/svg" viewBox="0 0 24 24" id="ic_whatsapp">
    <path fill-rule="evenodd" clip-rule="evenodd" d="M19.6529 4.35407C17.6224 2.32119 14.9221 1.20117 12.045 1.2C6.1171 1.2 1.29248 6.0243 1.29012 11.9541C1.28933 13.8496 1.78455 15.6997 2.72572 17.3308L1.19995 22.9038L6.90126 21.4083C8.47211 22.2651 10.2408 22.7167 12.0407 22.7173H12.0451C12.0455 22.7173 12.0448 22.7173 12.0452 22.7173C17.9725 22.7173 22.7975 17.8925 22.7999 11.9626C22.8011 9.08897 21.6834 6.38688 19.6529 4.35407ZM12.0451 20.901H12.0415C10.4375 20.9004 8.86427 20.4694 7.49182 19.655L7.16541 19.4613L3.78217 20.3488L4.68521 17.0501L4.47267 16.7119C3.57787 15.2887 3.10526 13.6438 3.10596 11.9547C3.10791 7.02617 7.11797 3.01644 12.0487 3.01644C14.4363 3.01725 16.6807 3.94829 18.3684 5.63795C20.0561 7.32756 20.985 9.57346 20.9841 11.962C20.9821 16.8909 16.9721 20.901 12.0451 20.901ZM16.9484 14.2061C16.6796 14.0716 15.3585 13.4216 15.1121 13.3319C14.8658 13.2422 14.6866 13.1974 14.5075 13.4663C14.3284 13.7353 13.8134 14.3407 13.6566 14.52C13.4999 14.6993 13.3431 14.7219 13.0744 14.5873C12.8057 14.4528 11.9398 14.1691 10.9134 13.2535C10.1145 12.5409 9.57519 11.6609 9.41843 11.3919C9.26167 11.1229 9.40172 10.9775 9.53624 10.8435C9.65715 10.723 9.80499 10.5296 9.93935 10.3727C10.0737 10.2158 10.1185 10.1036 10.2081 9.92439C10.2976 9.74498 10.2529 9.58808 10.1857 9.4536C10.1185 9.3191 9.58106 7.99633 9.35713 7.45823C9.13898 6.93431 8.91745 7.00526 8.75251 6.99693C8.59594 6.98915 8.4166 6.98749 8.23747 6.98749C8.05833 6.98749 7.76717 7.05473 7.52086 7.32373C7.27455 7.59279 6.58034 8.24294 6.58034 9.56557C6.58034 10.8883 7.54325 12.1661 7.67762 12.3455C7.81197 12.5249 9.57252 15.2391 12.2682 16.4031C12.9094 16.68 13.41 16.8454 13.8002 16.9692C14.444 17.1738 15.0298 17.1449 15.4928 17.0757C16.0091 16.9986 17.0827 16.4256 17.3067 15.798C17.5306 15.1701 17.5306 14.6321 17.4634 14.52C17.3962 14.4079 17.2171 14.3407 16.9484 14.2061Z" fill="currentColor"></path>
  </symbol>
  <symbol xmlns="http://www.w3.org/2000/svg" viewBox="0 0 12 12" id="ic_ya">
    <path fill-rule="evenodd" clip-rule="evenodd" d="M11.0999 6.00002C11.0999 8.81668 8.81655 11.1 5.9999 11.1C3.18325 11.1 0.899902 8.81668 0.899902 6.00002C0.899902 3.18337 3.18325 0.900024 5.9999 0.900024C8.81655 0.900024 11.0999 3.18337 11.0999 6.00002ZM6.72541 9.20158H7.84497V9.19969H7.8374V2.79751H6.2191C4.59418 2.79751 3.73582 3.63504 3.73582 4.86627C3.73582 5.85144 4.20712 6.43535 5.04465 7.03345L3.58819 9.20064H4.79197L6.41027 6.7732L5.84718 6.39371C5.1639 5.93661 4.83361 5.57794 4.83361 4.80381C4.83361 4.12148 5.31248 3.66438 6.22667 3.66438H6.72541V9.20158Z" fill="currentColor"></path>
  </symbol>
  <symbol xmlns="http://www.w3.org/2000/svg" viewBox="0 0 24 24" id="ic_youtube">
    <path fill-rule="evenodd" clip-rule="evenodd" d="M20.9078 4.49645C21.8888 4.75866 22.6613 5.53124 22.9235 6.5122C23.4 8.29026 23.4 12 23.4 12C23.4 12 23.4 15.7098 22.9235 17.4878C22.6613 18.4688 21.8888 19.2414 20.9078 19.5036C19.1297 19.98 12 19.98 12 19.98C12 19.98 4.87022 19.98 3.09216 19.5036C2.11119 19.2414 1.33862 18.4688 1.0764 17.4878C0.599976 15.7098 0.599976 12 0.599976 12C0.599976 12 0.599976 8.29026 1.0764 6.5122C1.33862 5.53123 2.11119 4.75866 3.09216 4.49645C4.87022 4.02002 12 4.02002 12 4.02002C12 4.02002 19.1297 4.02002 20.9078 4.49645ZM15.6436 12.0002L9.72022 15.4201V8.58014L15.6436 12.0002Z" fill="currentColor"></path>
  </symbol>
</svg>